<svg xmlns="http://www.w3.org/2000/svg" version="1.1" viewBox="-5.0 -10.0 110.0 135.0">
 <path d="m91.672 14.59v70.773c0 1.6602-0.66016 3.2461-1.832 4.4219-1.1719 1.1719-2.7617 1.8281-4.418 1.8281h-70.832c-1.6602 0-3.2461-0.66016-4.418-1.8281-1.1719-1.1719-1.832-2.7617-1.832-4.4219v-70.773c0-1.6562 0.66016-3.2461 1.832-4.418s2.7617-1.832 4.418-1.832h70.832c1.6602 0 3.2461 0.66016 4.418 1.832s1.832 2.7617 1.832 4.418zm-4.168 10.387v-10.387c0-0.55078-0.22266-1.082-0.60938-1.4727-0.39062-0.39063-0.92188-0.60938-1.4727-0.60938h-70.832c-0.55078 0-1.082 0.22266-1.4727 0.60938-0.39063 0.39062-0.60938 0.92187-0.60938 1.4727v10.387h75zm-75 4.168v56.223c0 0.55078 0.21875 1.082 0.60938 1.4727s0.92188 0.60938 1.4727 0.60938h70.832c0.55078 0 1.082-0.21875 1.4727-0.60938s0.60938-0.92188 0.60938-1.4727v-56.223h-75z" fill-rule="evenodd"/>
 <path d="m24.047 18.445c0 3.4727-5.207 3.4727-5.207 0 0-3.4727 5.207-3.4727 5.207 0" fill-rule="evenodd"/>
 <path d="m34.434 18.445c0 3.4727-5.207 3.4727-5.207 0 0-3.4727 5.207-3.4727 5.207 0" fill-rule="evenodd"/>
 <path d="m44.824 18.445c0 3.4727-5.207 3.4727-5.207 0 0-3.4727 5.207-3.4727 5.207 0" fill-rule="evenodd"/>
 <path d="m62.461 20.832c-1.1484 0-2.082-0.93359-2.082-2.082s0.93359-2.082 2.082-2.082h18.773c1.1484 0 2.082 0.93359 2.082 2.082s-0.93359 2.082-2.082 2.082z" fill-rule="evenodd"/>
 <path d="m35.473 52.082h2.082c1.1484 0 2.082 0.93359 2.082 2.082v12.5c0 3.4531-2.8008 6.25-6.25 6.25h-8.332c-3.4531 0-6.25-2.7969-6.25-6.25v-12.5c0-1.1484 0.92969-2.082 2.082-2.082h2.082v-2.082c0-3.4531 2.7969-6.25 6.25-6.25 3.4492 0 6.25 2.7969 6.25 6.25v2.082zm0 4.168h-12.5v10.418c0 1.1484 0.92969 2.082 2.082 2.082h8.332c1.1484 0 2.082-0.93359 2.082-2.082v-10.418zm-4.168-4.168v-2.082c0-1.1484-0.93359-2.082-2.082-2.082-1.1523 0-2.082 0.93359-2.082 2.082v2.082h4.168z" fill-rule="evenodd"/>
 <path d="m83.352 35.418v8.332c0 1.1484-0.93359 2.082-2.082 2.082h-35.418c-1.1523 0-2.082-0.93359-2.082-2.082v-8.332c0-1.1484 0.92969-2.082 2.082-2.082h35.418c1.1484 0 2.082 0.93359 2.082 2.082zm-4.168 2.082h-31.25v4.168h31.25z" fill-rule="evenodd"/>
 <path d="m50.539 51.957c0 3.4727-5.207 3.4727-5.207 0 0-3.4727 5.207-3.4727 5.207 0" fill-rule="evenodd"/>
 <path d="m50.539 60.215c0 3.4727-5.207 3.4727-5.207 0 0-3.4688 5.207-3.4688 5.207 0" fill-rule="evenodd"/>
 <path d="m50.539 68.633c0 3.4727-5.207 3.4727-5.207 0 0-3.4727 5.207-3.4727 5.207 0" fill-rule="evenodd"/>
 <path d="m56.266 54.168c-1.1484 0-2.082-0.93359-2.082-2.082 0-1.1484 0.93359-2.082 2.082-2.082h25c1.1484 0 2.082 0.93359 2.082 2.082 0 1.1484-0.93359 2.082-2.082 2.082z" fill-rule="evenodd"/>
 <path d="m56.266 62.422c-1.1484 0-2.082-0.93359-2.082-2.082 0-1.1484 0.93359-2.082 2.082-2.082h25c1.1484 0 2.082 0.93359 2.082 2.082 0 1.1484-0.93359 2.082-2.082 2.082z" fill-rule="evenodd"/>
 <path d="m56.266 70.84c-1.1484 0-2.082-0.93359-2.082-2.082 0-1.1484 0.93359-2.082 2.082-2.082h14.582c1.1484 0 2.082 0.93359 2.082 2.082 0 1.1484-0.93359 2.082-2.082 2.082z" fill-rule="evenodd"/>
 <path d="m20.953 83.332c-1.1484 0-2.082-0.93359-2.082-2.082s0.93359-2.082 2.082-2.082h16.418c1.1484 0 2.082 0.93359 2.082 2.082s-0.93359 2.082-2.082 2.082z" fill-rule="evenodd"/>
<text x="0.0" y="117.5" font-size="5.0" font-weight="bold" font-family="Arbeit Regular, Helvetica, Arial-Unicode, Arial, Sans-serif" fill="#000000">Created by erix subyarko</text><text x="0.0" y="122.5" font-size="5.0" font-weight="bold" font-family="Arbeit Regular, Helvetica, Arial-Unicode, Arial, Sans-serif" fill="#000000">from Noun Project</text></svg>